<!DOCTYPE svg PUBLIC "-//W3C//DTD SVG 20010904//EN" "http://www.w3.org/TR/2001/REC-SVG-20010904/DTD/svg10.dtd">
<svg version="1.0" xmlns="http://www.w3.org/2000/svg" width="669px" height="155px" viewBox="0 0 6690 1550" preserveAspectRatio="xMidYMid meet">
<g id="layer101" fill="#0b0908" stroke="none">
 <path d="M3352 1234 c-12 -8 -31 -33 -43 -55 l-20 -40 -26 21 c-49 38 -126 16 -176 -51 -27 -37 -37 -156 -13 -165 26 -10 46 15 46 58 0 46 22 93 51 109 40 21 82 -48 71 -119 -5 -37 11 -48 50 -33 21 8 31 26 58 113 18 57 37 107 41 113 13 14 11 41 -4 53 -10 9 -19 7 -35 -4z"/>
 <path d="M1090 1225 c-7 -8 -14 -59 -18 -120 l-5 -105 -31 4 c-17 3 -67 8 -111 11 -74 5 -83 4 -100 -15 -42 -46 8 -63 252 -86 80 -8 145 9 178 46 17 19 17 20 -9 30 -15 5 -50 10 -77 10 l-49 0 4 38 c19 146 16 202 -9 202 -7 0 -18 -7 -25 -15z"/>
 <path d="M3508 1228 c-9 -7 -20 -30 -24 -51 l-7 -39 47 7 c49 8 96 0 96 -14 0 -5 -30 -26 -67 -47 -89 -48 -113 -71 -113 -105 0 -20 10 -35 33 -53 38 -29 69 -33 87 -11 18 22 -4 62 -33 61 -44 -2 -20 27 57 67 94 49 125 84 110 124 -17 49 -147 92 -186 61z"/>
 <path d="M2302 1222 c-15 -10 -42 -146 -42 -217 0 -40 4 -54 16 -59 31 -12 41 12 48 116 5 72 12 108 23 120 26 29 -11 61 -45 40z"/>
 <path d="M2517 1213 c-14 -16 -17 -40 -17 -141 0 -127 7 -147 41 -116 14 13 19 31 19 73 0 31 3 73 6 94 l7 37 80 -2 c78 -3 81 -2 96 24 9 15 12 30 7 35 -4 4 -56 9 -115 11 -95 3 -108 2 -124 -15z"/>
 <path d="M2820 1220 c-55 -13 -61 -30 -58 -159 2 -74 7 -116 14 -118 17 -6 26 22 38 117 l11 85 79 2 c71 1 82 4 98 25 24 31 23 44 -4 52 -31 8 -136 6 -178 -4z"/>
 <path d="M1316 1184 c-9 -8 -16 -28 -16 -44 0 -24 -5 -29 -26 -32 -34 -4 -56 -34 -34 -48 8 -5 25 -10 36 -10 20 0 21 -4 16 -45 -3 -28 0 -50 8 -60 22 -27 50 9 50 63 0 36 3 43 16 38 9 -3 20 -6 26 -6 6 0 8 -16 4 -43 -6 -42 -1 -77 13 -77 22 1 36 25 41 71 4 46 8 54 30 59 l25 7 -3 -69 c-3 -50 0 -69 10 -72 7 -2 68 -7 136 -10 115 -5 124 -4 144 16 18 18 19 22 5 30 -9 5 -68 9 -132 9 -112 1 -115 2 -115 23 0 21 2 22 80 14 75 -7 81 -6 105 16 28 26 32 41 13 50 -7 3 -1 4 14 1 21 -4 30 0 39 17 10 19 8 24 -15 43 -14 11 -26 26 -26 33 0 8 -22 12 -70 12 -60 0 -77 -4 -111 -27 -22 -14 -46 -38 -54 -52 -14 -25 -14 -25 -15 -3 0 17 -6 22 -26 22 -24 0 -26 3 -21 30 8 39 0 60 -21 53 -23 -9 -32 -23 -32 -55 0 -23 -4 -28 -26 -28 -22 0 -25 4 -21 21 7 24 -8 69 -22 69 -5 0 -17 -7 -25 -16z m384 -99 c32 -12 33 -14 9 -14 -51 -2 -121 12 -107 20 19 12 57 10 98 -6z"/>
 <path d="M3950 1187 c-21 -11 -27 -25 -40 -102 l-16 -90 -84 3 c-90 3 -100 0 -118 -34 -9 -17 -9 -24 1 -32 6 -5 77 -13 157 -17 125 -6 148 -5 159 9 20 24 9 51 -22 54 -32 4 -31 1 -12 117 8 49 11 93 7 97 -4 4 -18 2 -32 -5z"/>
 <path d="M4162 1171 c-18 -11 -51 -124 -58 -196 l-6 -60 37 -17 c52 -26 91 -23 120 8 29 31 32 69 10 121 -18 43 -14 48 57 56 53 7 95 28 105 53 13 34 -11 34 -189 -1 -33 -6 -37 -5 -40 16 -3 25 -17 33 -36 20z m47 -176 c11 -25 21 -47 21 -50 0 -3 -13 -5 -29 -5 -35 0 -45 22 -35 74 8 43 15 40 43 -19z"/>
 <path d="M481 1153 c-34 -14 -58 -48 -41 -58 6 -4 38 -8 73 -10 34 -3 99 -7 144 -11 75 -5 82 -4 92 15 10 17 8 24 -9 38 -29 25 -215 43 -259 26z"/>
 <path d="M4559 1134 c-6 -8 -14 -37 -17 -64 l-5 -50 -38 0 c-28 0 -42 -6 -53 -22 -20 -29 -6 -46 46 -54 42 -7 51 -16 56 -54 5 -42 10 -50 37 -50 31 0 73 20 137 66 26 18 54 31 62 28 23 -9 68 91 60 133 -3 18 -10 35 -14 38 -4 3 -32 -18 -61 -46 -46 -44 -57 -50 -82 -45 -16 3 -45 6 -65 6 l-35 0 7 59 c5 47 4 60 -8 64 -8 3 -20 -1 -27 -9z"/>
 <path d="M5034 1110 c-7 -7 -9 -40 -6 -85 2 -40 2 -89 -2 -109 l-7 -35 -82 -3 c-74 -3 -82 -5 -82 -23 0 -18 11 -21 110 -32 146 -17 224 -14 239 10 14 23 -6 37 -56 37 -41 0 -41 -2 -53 125 -11 105 -16 125 -34 125 -9 0 -22 -5 -27 -10z"/>
 <path d="M5612 1087 c-19 -20 -22 -38 -28 -164 l-7 -142 36 -6 c50 -10 74 1 108 47 30 42 37 85 19 119 -8 14 -7 19 1 19 6 0 38 12 69 26 43 19 60 33 65 51 8 35 -7 48 -42 35 -126 -47 -193 -68 -193 -62 0 4 5 22 11 39 9 26 9 36 -3 47 -12 13 -17 11 -36 -9z m74 -203 c7 -28 -7 -44 -38 -44 -15 0 -17 7 -14 43 2 23 4 43 5 45 4 12 42 -24 47 -44z"/>
 <path d="M5345 1049 c-67 -59 -81 -113 -41 -155 19 -21 35 -27 90 -31 l66 -6 39 40 c68 68 64 129 -9 165 -55 28 -103 23 -145 -13z m113 -55 c12 -8 22 -24 22 -34 0 -41 -90 -57 -110 -20 -6 11 -15 18 -21 15 -5 -4 -9 1 -9 9 0 20 39 46 70 46 14 0 36 -7 48 -16z"/>
 <path d="M6044 914 c-29 -7 -60 -42 -48 -54 15 -15 245 -15 276 0 26 12 44 38 33 48 -6 7 -235 12 -261 6z"/>
 <path d="M2328 759 c-58 -30 -73 -61 -73 -149 0 -68 3 -81 29 -119 16 -23 43 -49 60 -58 41 -21 102 -20 126 2 20 18 20 17 20 -96 0 -131 9 -153 47 -117 22 20 23 28 23 164 0 156 17 236 54 256 30 16 80 -43 97 -116 12 -56 21 -64 49 -46 11 7 23 1 47 -22 26 -25 43 -32 87 -36 46 -4 63 0 103 22 32 18 49 23 52 15 9 -28 43 -49 78 -49 32 0 44 8 88 54 l51 53 37 -43 c44 -50 81 -65 104 -41 15 14 19 13 50 -10 44 -34 93 -33 158 1 70 38 85 54 85 92 0 27 6 36 30 49 16 8 39 15 51 15 28 0 105 -44 113 -65 6 -17 37 -20 64 -6 9 5 25 12 34 15 10 3 20 17 24 31 5 21 0 33 -22 56 -28 30 -118 69 -157 69 -41 0 -96 -21 -127 -47 l-31 -26 -34 33 c-80 77 -196 32 -239 -94 l-13 -38 -20 28 c-35 50 -55 96 -62 143 -7 52 -25 62 -59 34 -16 -13 -27 -41 -39 -101 -24 -124 -64 -163 -102 -101 -15 24 -18 43 -13 94 6 76 -10 109 -63 131 -76 31 -193 1 -256 -67 l-29 -32 -25 27 c-37 40 -70 49 -111 30 -19 -9 -43 -27 -53 -41 l-19 -24 -29 53 c-31 58 -82 98 -122 98 -14 -1 -43 -10 -63 -21z m92 -91 c16 -17 36 -52 44 -76 14 -39 14 -46 1 -59 -8 -8 -15 -21 -15 -29 0 -9 -11 -14 -29 -14 -48 0 -81 52 -81 126 0 89 29 108 80 52z m599 -24 c27 -34 27 -74 -1 -110 -33 -42 -50 -53 -81 -54 -43 0 -84 26 -96 61 -31 89 0 127 106 128 44 1 54 -3 72 -25z m550 -51 c11 -10 27 -31 35 -48 14 -26 14 -31 -1 -47 -26 -29 -78 -23 -102 11 -26 36 -27 76 -3 90 25 15 47 13 71 -6z"/>
 </g>

</svg>